<?xml version="1.0" encoding="UTF-8" standalone="no"?>
<!-- Created with Inkscape (http://www.inkscape.org/) -->

<svg
   xmlns:dc="http://purl.org/dc/elements/1.1/"
   xmlns:cc="http://creativecommons.org/ns#"
   xmlns:rdf="http://www.w3.org/1999/02/22-rdf-syntax-ns#"
   xmlns:svg="http://www.w3.org/2000/svg"
   xmlns="http://www.w3.org/2000/svg"
   xmlns:sodipodi="http://sodipodi.sourceforge.net/DTD/sodipodi-0.dtd"
   xmlns:inkscape="http://www.inkscape.org/namespaces/inkscape"
   width="640"
   height="640"
   viewBox="0 0 169.33333 169.33334"
   version="1.1"
   id="svg8"
   inkscape:version="0.92.1 r15371"
   sodipodi:docname="pcs_bg.svg">
  <defs
     id="defs2" />
  <sodipodi:namedview
     id="base"
     pagecolor="#ffffff"
     bordercolor="#666666"
     borderopacity="1.0"
     inkscape:pageopacity="0.0"
     inkscape:pageshadow="2"
     inkscape:zoom="0.98994949"
     inkscape:cx="313.13033"
     inkscape:cy="100.6264"
     inkscape:document-units="mm"
     inkscape:current-layer="layer1"
     showgrid="false"
     units="px"
     inkscape:snap-object-midpoints="true"
     inkscape:window-width="1920"
     inkscape:window-height="1017"
     inkscape:window-x="-8"
     inkscape:window-y="-8"
     inkscape:window-maximized="1" />
  <metadata
     id="metadata5">
    <rdf:RDF>
      <cc:Work
         rdf:about="">
        <dc:format>image/svg+xml</dc:format>
        <dc:type
           rdf:resource="http://purl.org/dc/dcmitype/StillImage" />
        <dc:title />
      </cc:Work>
    </rdf:RDF>
  </metadata>
  <g
     inkscape:label="Layer 1"
     inkscape:groupmode="layer"
     id="layer1"
     transform="translate(0,-127.66665)">
    <path
       style="fill:#45a29e;fill-opacity:1;stroke:#45a29e;stroke-width:0.30000001;stroke-miterlimit:4;stroke-dasharray:none;stroke-opacity:1"
       d="m 50.131066,206.56816 c -0.210532,0.01 -4.713101,-3.11276 -16.250216,-11.26948 -8.777443,-6.20563 -16.129559,-11.41679 -16.338032,-11.58035 l -0.379046,-0.29738 0.02956,-14.46362 0.02956,-14.46361 4.935365,-3.48864 4.935368,-3.48865 11.663367,-3.53774 c 6.414857,-1.94577 11.728784,-3.52325 11.808732,-3.50551 0.07995,0.0177 5.858126,4.06858 12.840396,9.00189 l 12.695044,8.96965 0.0035,11.32258 0.0035,11.32258 -8.029204,9.3321 -8.029204,9.33209 -4.813706,3.4003 c -2.976625,2.10262 -4.924854,3.40545 -5.104935,3.41379 z m -0.320345,-0.66137 c 0.04805,0.004 0.08737,-6.30342 0.08737,-14.01639 V 177.86682 L 35.016618,167.34528 C 26.831811,161.55843 19.597846,156.44153 18.941139,155.9744 l -1.194012,-0.84935 v 14.07084 14.07083 l 15.988112,11.31644 c 8.793463,6.22405 16.027431,11.31968 16.075482,11.32363 z m -4.915409,-5.11833 c -0.191247,0 -0.489423,-0.12754 -0.687172,-0.29394 -0.192132,-0.16166 -0.458253,-0.51895 -0.591382,-0.79395 -0.13313,-0.27501 -0.242054,-0.58029 -0.242054,-0.6784 0,-0.0981 0.09788,-0.29123 0.21752,-0.42917 0.119637,-0.13794 0.353779,-0.25081 0.520316,-0.25081 0.18939,0 0.452017,0.14922 0.701205,0.39841 0.219125,0.21913 0.489691,0.63743 0.601261,0.92957 0.189109,0.49518 0.189819,0.55106 0.01051,0.82473 -0.132397,0.20206 -0.297653,0.29356 -0.530195,0.29356 z m -0.02162,-0.46595 c 0.07252,0 0.131509,-0.11795 0.131088,-0.2621 -4.86e-4,-0.14416 -0.09636,-0.40707 -0.213202,-0.58427 -0.116839,-0.17719 -0.313068,-0.39831 -0.436066,-0.49137 -0.122997,-0.0931 -0.262947,-0.17087 -0.310999,-0.17292 -0.04805,-0.002 -0.08736,0.14983 -0.08736,0.33747 0,0.22737 0.130878,0.47994 0.392344,0.75718 0.215788,0.22881 0.451678,0.41601 0.5242,0.41601 z m 1.587638,-1.2036 c -0.06425,0.0214 -0.447964,-0.1577 -0.852697,-0.39802 -0.404732,-0.24031 -6.072456,-4.21118 -12.594938,-8.82415 l -11.859059,-8.38721 -0.07291,-0.51133 c -0.0401,-0.28123 -0.07291,-5.11087 -0.07291,-10.73252 v -10.22119 l 0.241934,-0.0632 c 0.184504,-0.0483 3.224758,2.04301 12.808557,8.81046 l 12.566627,8.87372 -0.02389,10.70728 c -0.01569,7.03354 -0.06397,10.72064 -0.140711,10.74622 z m -0.312286,-0.70635 c 0.02027,-0.24377 0.02027,-0.45754 0,-0.47507 -0.02027,-0.0175 -5.426044,-3.8415 -12.012836,-8.49773 -9.254551,-6.54206 -12.028845,-8.44907 -12.208627,-8.392 -0.127962,0.0406 -0.216663,0.11731 -0.197121,0.17045 0.01955,0.0531 5.356171,3.85422 11.859167,8.44686 6.502997,4.59263 11.980895,8.53933 12.173101,8.77045 l 0.349468,0.42024 z m -0.182462,-1.24441 c 0.04806,0.005 0.08711,-4.3286 0.08679,-9.6303 l -6.19e-4,-9.63947 -11.153237,-7.88479 c -6.134278,-4.33664 -11.454953,-8.10088 -11.82372,-8.36497 l -0.670478,-0.4802 0.02978,9.70243 0.02978,9.70241 11.707143,8.29287 c 6.438931,4.56107 11.746459,8.29699 11.79451,8.30202 z M 24.426187,168.05341 c -0.01048,8.3e-4 -0.234774,-0.37252 -0.498433,-0.82983 -0.263664,-0.45731 -0.46477,-0.84008 -0.446906,-0.85057 0.01788,-0.0105 0.333895,-0.1108 0.702292,-0.22288 0.368396,-0.11208 0.669811,-0.22244 0.669811,-0.24524 0,-0.0228 -0.314519,-0.57114 -0.698933,-1.21854 -0.384414,-0.6474 -0.698935,-1.19745 -0.698935,-1.22235 0,-0.0249 0.264934,-0.10882 0.588735,-0.1865 0.323801,-0.0777 0.605089,-0.12222 0.625079,-0.099 0.01999,0.0233 0.54745,0.91671 1.172136,1.9855 0.624683,1.06879 1.139306,1.98614 1.143608,2.03855 0.0043,0.0524 -0.565305,0.26493 -1.265792,0.47226 -0.700486,0.20731 -1.28218,0.37768 -1.292662,0.37858 z m 0.245542,-0.53527 c 0.103678,-0.03 0.660392,-0.23502 1.032474,-0.34037 0.651752,-0.18453 0.670617,-0.20077 0.515354,-0.44343 -0.08864,-0.13853 -0.521952,-0.86782 -0.962913,-1.62063 -0.440965,-0.75281 -0.843239,-1.36874 -0.893943,-1.36874 -0.05071,0 -0.196852,0.005 -0.196852,0.062 0,0.0571 0.392971,0.63357 0.745346,1.2299 0.352384,0.59633 0.640693,1.121 0.640693,1.16596 0,0.045 -0.266122,0.14557 -0.591381,0.2236 -0.325264,0.078 -0.680349,0.23101 -0.712336,0.31436 -0.03199,0.0833 0.09415,0.26725 0.203568,0.43424 0.120868,0.18447 0.105455,0.37637 0.21999,0.34318 z m -2.993102,13.2069 0.262101,-0.24627 v -9.80875 c 0,-8.6459 -0.02104,-9.82622 -0.177548,-9.9561 -0.09765,-0.0811 -0.201089,-0.12382 -0.229862,-0.095 -0.02876,0.0288 -0.06683,4.61984 -0.08455,10.20237 l -0.03225,10.15006 z m 28.756137,25.18894 c 0.0389,0 2.132456,-1.45825 4.652354,-3.24056 l 4.581634,-3.24056 7.978216,-9.25288 7.97821,-9.25288 0.0085,-10.8626 c 0.0047,-5.97444 -0.01851,-10.86261 -0.05144,-10.86261 -0.03296,0 -3.505789,2.62881 -7.717396,5.8418 -4.21161,3.21298 -9.872216,7.41012 -12.579128,9.32697 l -4.92166,3.48516 v 14.02908 c 0,7.71599 0.03182,14.02908 0.07072,14.02908 z m -0.213592,-28.59466 c 0.08159,-0.031 2.283237,-1.56792 4.892538,-3.41531 2.6093,-1.84739 8.230118,-6.01748 12.490704,-9.26688 4.260584,-3.24939 7.75732,-5.94578 7.770522,-5.99196 0.01321,-0.0462 -5.583111,-4.04169 -12.436247,-8.87888 -6.853135,-4.83721 -12.499092,-8.78945 -12.54657,-8.78276 -0.04747,0.007 -5.262425,1.57865 -11.588775,3.49325 l -11.502453,3.48109 -4.623163,3.2679 c -2.542739,1.79736 -4.636877,3.31818 -4.653635,3.37961 -0.01676,0.0614 7.187345,5.20989 16.009124,11.44102 8.821783,6.23114 16.106361,11.30396 16.187955,11.27292 z"
       id="path5294"
       inkscape:connector-curvature="0"
       sodipodi:nodetypes="csccccccscscccccccccscsscccscsccscscccssscsccscsccsccsccscscscsccsccscccsccccsccccccscsccccscccccsscsccccccscssccsscccsssscssscsscscscscsc" />
    <path
       sodipodi:nodetypes="csccccccscscccccccccscsscccscsccscscccssscsccscsccsccsccscscscsccsccscccsccccsccccccscsccccscccccsscsccccccscssccsscccsssscssscsscscscscsc"
       inkscape:connector-curvature="0"
       id="path5305"
       d="m 122.82242,291.17785 c -0.21053,0.01 -4.7131,-3.11276 -16.25022,-11.26948 -8.777439,-6.20563 -16.129555,-11.41679 -16.338028,-11.58035 l -0.379046,-0.29738 0.02956,-14.46362 0.02956,-14.46361 4.935365,-3.48864 4.935368,-3.48865 11.663371,-3.53774 c 6.41485,-1.94577 11.72878,-3.52325 11.80873,-3.50551 0.0799,0.0177 5.85812,4.06858 12.84039,9.00189 l 12.69505,8.96965 0.004,11.32258 0.003,11.32258 -8.02921,9.3321 -8.0292,9.33209 -4.81371,3.4003 c -2.97662,2.10262 -4.92485,3.40545 -5.10493,3.41379 z m -0.32035,-0.66137 c 0.048,0.004 0.0874,-6.30342 0.0874,-14.01639 v -14.02358 l -14.8815,-10.52154 C 99.523165,246.16812 92.2892,241.05122 91.632493,240.58409 l -1.194012,-0.84935 v 14.07084 14.07083 l 15.988109,11.31644 c 8.79346,6.22405 16.02743,11.31968 16.07548,11.32363 z m -4.91541,-5.11833 c -0.19124,0 -0.48942,-0.12754 -0.68717,-0.29394 -0.19213,-0.16166 -0.45825,-0.51895 -0.59138,-0.79395 -0.13313,-0.27501 -0.24206,-0.58029 -0.24206,-0.6784 0,-0.0981 0.0979,-0.29123 0.21752,-0.42917 0.11964,-0.13794 0.35378,-0.25081 0.52032,-0.25081 0.18939,0 0.45202,0.14922 0.70121,0.39841 0.21912,0.21913 0.48969,0.63743 0.60126,0.92957 0.18911,0.49518 0.18982,0.55106 0.0105,0.82473 -0.1324,0.20206 -0.29765,0.29356 -0.5302,0.29356 z m -0.0216,-0.46595 c 0.0725,0 0.13151,-0.11795 0.13109,-0.2621 -4.8e-4,-0.14416 -0.0964,-0.40707 -0.2132,-0.58427 -0.11684,-0.17719 -0.31307,-0.39831 -0.43607,-0.49137 -0.12299,-0.0931 -0.26295,-0.17087 -0.311,-0.17292 -0.0481,-0.002 -0.0874,0.14983 -0.0874,0.33747 0,0.22737 0.13088,0.47994 0.39235,0.75718 0.21579,0.22881 0.45168,0.41601 0.5242,0.41601 z m 1.58764,-1.2036 c -0.0643,0.0214 -0.44796,-0.1577 -0.85269,-0.39802 -0.40474,-0.24031 -6.07246,-4.21118 -12.59494,-8.82415 l -11.85906,-8.38721 -0.07291,-0.51133 c -0.0401,-0.28123 -0.07291,-5.11087 -0.07291,-10.73252 v -10.22119 l 0.241934,-0.0632 c 0.184504,-0.0483 3.224758,2.04301 12.808556,8.81046 l 12.56663,8.87372 -0.0239,10.70728 c -0.0157,7.03354 -0.064,10.72064 -0.14071,10.74622 z m -0.31228,-0.70635 c 0.0203,-0.24377 0.0203,-0.45754 0,-0.47507 -0.0203,-0.0175 -5.42605,-3.8415 -12.01284,-8.49773 -9.254549,-6.54206 -12.028843,-8.44907 -12.208625,-8.392 -0.127962,0.0406 -0.216663,0.11731 -0.197121,0.17045 0.01955,0.0531 5.356171,3.85422 11.859166,8.44686 6.503,4.59263 11.98089,8.53933 12.1731,8.77045 l 0.34947,0.42024 z m -0.18247,-1.24441 c 0.0481,0.005 0.0871,-4.3286 0.0868,-9.6303 l -6.1e-4,-9.63947 -11.15324,-7.88479 c -6.13428,-4.33664 -11.454953,-8.10088 -11.82372,-8.36497 l -0.670478,-0.4802 0.02978,9.70243 0.02978,9.70241 11.707138,8.29287 c 6.43894,4.56107 11.74646,8.29699 11.79451,8.30202 z M 97.117541,252.6631 c -0.01048,8.3e-4 -0.234774,-0.37252 -0.498433,-0.82983 -0.263664,-0.45731 -0.46477,-0.84008 -0.446906,-0.85057 0.01788,-0.0105 0.333895,-0.1108 0.702292,-0.22288 0.368396,-0.11208 0.669811,-0.22244 0.669811,-0.24524 0,-0.0228 -0.314519,-0.57114 -0.698933,-1.21854 -0.384414,-0.6474 -0.698935,-1.19745 -0.698935,-1.22235 0,-0.0249 0.264934,-0.10882 0.588735,-0.1865 0.323801,-0.0777 0.605089,-0.12222 0.625079,-0.099 0.01999,0.0233 0.54745,0.91671 1.172136,1.9855 0.624683,1.06879 1.139306,1.98614 1.143608,2.03855 0.0043,0.0524 -0.565305,0.26493 -1.265792,0.47226 -0.700486,0.20731 -1.28218,0.37768 -1.292662,0.37858 z m 0.245542,-0.53527 c 0.103678,-0.03 0.660392,-0.23502 1.032474,-0.34037 0.651752,-0.18453 0.670617,-0.20077 0.515354,-0.44343 -0.08864,-0.13853 -0.521952,-0.86782 -0.962913,-1.62063 -0.440965,-0.75281 -0.843239,-1.36874 -0.893943,-1.36874 -0.05071,0 -0.196852,0.005 -0.196852,0.062 0,0.0571 0.392971,0.63357 0.745346,1.2299 0.352384,0.59633 0.640693,1.121 0.640693,1.16596 0,0.045 -0.266122,0.14557 -0.591381,0.2236 -0.325264,0.078 -0.680349,0.23101 -0.712336,0.31436 -0.03199,0.0833 0.09415,0.26725 0.203568,0.43424 0.120868,0.18447 0.105455,0.37637 0.21999,0.34318 z m -2.993102,13.2069 0.262101,-0.24627 v -9.80875 c 0,-8.6459 -0.02104,-9.82622 -0.177548,-9.9561 -0.09765,-0.0811 -0.201089,-0.12382 -0.229862,-0.095 -0.02876,0.0288 -0.06683,4.61984 -0.08455,10.20237 l -0.03225,10.15006 z m 28.756139,25.18894 c 0.0389,0 2.13245,-1.45825 4.65235,-3.24056 l 4.58163,-3.24056 7.97822,-9.25288 7.97821,-9.25288 0.009,-10.8626 c 0.005,-5.97444 -0.0185,-10.86261 -0.0514,-10.86261 -0.033,0 -3.50579,2.62881 -7.71739,5.8418 -4.21161,3.21298 -9.87222,7.41012 -12.57913,9.32697 l -4.92166,3.48516 v 14.02908 c 0,7.71599 0.0318,14.02908 0.0707,14.02908 z m -0.2136,-28.59466 c 0.0816,-0.031 2.28324,-1.56792 4.89254,-3.41531 2.6093,-1.84739 8.23012,-6.01748 12.49071,-9.26688 4.26058,-3.24939 7.75732,-5.94578 7.77052,-5.99196 0.0132,-0.0462 -5.58311,-4.04169 -12.43625,-8.87888 -6.85313,-4.83721 -12.49909,-8.78945 -12.54657,-8.78276 -0.0475,0.007 -5.26242,1.57865 -11.58877,3.49325 l -11.502455,3.48109 -4.623163,3.2679 c -2.542739,1.79736 -4.636877,3.31818 -4.653635,3.37961 -0.01676,0.0614 7.187345,5.20989 16.009123,11.44102 8.82178,6.23114 16.10636,11.30396 16.18795,11.27292 z"
       style="fill:#45a29e;fill-opacity:1;stroke:#45a29e;stroke-width:0.30000001;stroke-miterlimit:4;stroke-dasharray:none;stroke-opacity:1" />
  </g>
</svg>
